<svg aria-roledescription="er" role="graphics-document document" viewBox="0 0 419.62158203125 425" style="max-width: 419.622px; background-color: white;" xmlns:xlink="http://www.w3.org/1999/xlink" xmlns="http://www.w3.org/2000/svg" width="100%" id="my-svg"><style>#my-svg{font-family:"trebuchet ms",verdana,arial,sans-serif;font-size:16px;fill:#000000;}#my-svg .error-icon{fill:#552222;}#my-svg .error-text{fill:#552222;stroke:#552222;}#my-svg .edge-thickness-normal{stroke-width:2px;}#my-svg .edge-thickness-thick{stroke-width:3.5px;}#my-svg .edge-pattern-solid{stroke-dasharray:0;}#my-svg .edge-pattern-dashed{stroke-dasharray:3;}#my-svg .edge-pattern-dotted{stroke-dasharray:2;}#my-svg .marker{fill:#000000;stroke:#000000;}#my-svg .marker.cross{stroke:#000000;}#my-svg svg{font-family:"trebuchet ms",verdana,arial,sans-serif;font-size:16px;}#my-svg .entityBox{fill:#cde498;stroke:#13540c;}#my-svg .attributeBoxOdd{fill:#ffffff;stroke:#13540c;}#my-svg .attributeBoxEven{fill:#f2f2f2;stroke:#13540c;}#my-svg .relationshipLabelBox{fill:hsl(78.1578947368, 58.4615384615%, 84.5098039216%);opacity:0.7;background-color:hsl(78.1578947368, 58.4615384615%, 84.5098039216%);}#my-svg .relationshipLabelBox rect{opacity:0.5;}#my-svg .relationshipLine{stroke:#000000;}#my-svg .entityTitleText{text-anchor:middle;font-size:18px;fill:#000000;}#my-svg #MD_PARENT_START{fill:#f5f5f5!important;stroke:#000000!important;stroke-width:1;}#my-svg #MD_PARENT_END{fill:#f5f5f5!important;stroke:#000000!important;stroke-width:1;}#my-svg :root{--mermaid-font-family:"trebuchet ms",verdana,arial,sans-serif;}</style><g/><defs><marker orient="auto" markerHeight="240" markerWidth="190" refY="7" refX="0" id="MD_PARENT_START"><path d="M 18,7 L9,13 L1,7 L9,1 Z"/></marker></defs><defs><marker orient="auto" markerHeight="28" markerWidth="20" refY="7" refX="19" id="MD_PARENT_END"><path d="M 18,7 L9,13 L1,7 L9,1 Z"/></marker></defs><defs><marker orient="auto" markerHeight="18" markerWidth="18" refY="9" refX="0" id="ONLY_ONE_START"><path d="M9,0 L9,18 M15,0 L15,18" fill="none" stroke="gray"/></marker></defs><defs><marker orient="auto" markerHeight="18" markerWidth="18" refY="9" refX="18" id="ONLY_ONE_END"><path d="M3,0 L3,18 M9,0 L9,18" fill="none" stroke="gray"/></marker></defs><defs><marker orient="auto" markerHeight="18" markerWidth="30" refY="9" refX="0" id="ZERO_OR_ONE_START"><circle r="6" cy="9" cx="21" fill="white" stroke="gray"/><path d="M9,0 L9,18" fill="none" stroke="gray"/></marker></defs><defs><marker orient="auto" markerHeight="18" markerWidth="30" refY="9" refX="30" id="ZERO_OR_ONE_END"><circle r="6" cy="9" cx="9" fill="white" stroke="gray"/><path d="M21,0 L21,18" fill="none" stroke="gray"/></marker></defs><defs><marker orient="auto" markerHeight="36" markerWidth="45" refY="18" refX="18" id="ONE_OR_MORE_START"><path d="M0,18 Q 18,0 36,18 Q 18,36 0,18 M42,9 L42,27" fill="none" stroke="gray"/></marker></defs><defs><marker orient="auto" markerHeight="36" markerWidth="45" refY="18" refX="27" id="ONE_OR_MORE_END"><path d="M3,9 L3,27 M9,18 Q27,0 45,18 Q27,36 9,18" fill="none" stroke="gray"/></marker></defs><defs><marker orient="auto" markerHeight="36" markerWidth="57" refY="18" refX="18" id="ZERO_OR_MORE_START"><circle r="6" cy="18" cx="48" fill="white" stroke="gray"/><path d="M0,18 Q18,0 36,18 Q18,36 0,18" fill="none" stroke="gray"/></marker></defs><defs><marker orient="auto" markerHeight="36" markerWidth="57" refY="18" refX="39" id="ZERO_OR_MORE_END"><circle r="6" cy="18" cx="9" fill="white" stroke="gray"/><path d="M21,18 Q39,0 57,18 Q39,36 21,18" fill="none" stroke="gray"/></marker></defs><path style="stroke: gray; fill: none;" marker-start="url(#ZERO_OR_MORE_START)" marker-end="url(#ZERO_OR_MORE_END)" d="M62.0067131405785,130L58.03845917232453,138.33333333333334C54.07020520407056,146.66666666666666,46.13369726756262,163.33333333333334,45.19574632961169,180C44.25779539166075,196.66666666666666,50.31840145226681,213.33333333333334,53.34870448256984,221.66666666666666L56.379007512872874,230" class="er relationshipLine"/><path style="stroke: gray; fill: none;" marker-start="url(#ZERO_OR_ONE_START)" marker-end="url(#ONLY_ONE_END)" d="M132.47076485373756,230L136.68729585589784,221.66666666666666C140.90382685805812,213.33333333333334,149.3368888623787,196.66666666666666,148.0317721236148,180C146.7266553848509,163.33333333333334,135.68335990300253,146.66666666666666,130.16171216207837,138.33333333333334L124.64006442115421,130" class="er relationshipLine"/><path style="stroke: gray; fill: none;" marker-start="url(#ZERO_OR_ONE_START)" marker-end="url(#ONLY_ONE_END)" d="M327.34271240234375,130L327.34271240234375,138.33333333333334C327.34271240234375,146.66666666666666,327.34271240234375,163.33333333333334,327.34271240234375,189.08333333333334C327.34271240234375,214.83333333333334,327.34271240234375,249.66666666666666,327.34271240234375,267.0833333333333L327.34271240234375,284.5" class="er relationshipLine"/><g transform="translate(277.34271240234375,284.5 )" id="entity-PeriodMenu-c33ed709-e813-5a12-8be4-1a015a85da72"><rect height="66" width="100" y="0" x="0" class="er entityBox"/><text style="dominant-baseline: middle; text-anchor: middle; font-size: 12px;" transform="translate(50,12)" y="0" x="0" id="text-entity-PeriodMenu-c33ed709-e813-5a12-8be4-1a015a85da72" class="er entityLabel">PeriodMenu</text><rect height="21" width="50" y="24" x="0" class="er attributeBoxOdd"/><text style="dominant-baseline: middle; font-size: 10.2px;" transform="translate(5,34.5)" y="0" x="0" id="text-entity-PeriodMenu-c33ed709-e813-5a12-8be4-1a015a85da72-attr-1-type" class="er entityLabel">DAY</text><rect height="21" width="50" y="24" x="50" class="er attributeBoxOdd"/><text style="dominant-baseline: middle; font-size: 10.2px;" transform="translate(55,34.5)" y="0" x="0" id="text-entity-PeriodMenu-c33ed709-e813-5a12-8be4-1a015a85da72-attr-1-name" class="er entityLabel">DAY</text><rect height="21" width="50" y="45" x="0" class="er attributeBoxEven"/><text style="dominant-baseline: middle; font-size: 10.2px;" transform="translate(5,55.5)" y="0" x="0" id="text-entity-PeriodMenu-c33ed709-e813-5a12-8be4-1a015a85da72-attr-2-type" class="er entityLabel">NIGHT</text><rect height="21" width="50" y="45" x="50" class="er attributeBoxEven"/><text style="dominant-baseline: middle; font-size: 10.2px;" transform="translate(55,55.5)" y="0" x="0" id="text-entity-PeriodMenu-c33ed709-e813-5a12-8be4-1a015a85da72-attr-2-name" class="er entityLabel">NIGHT</text></g><g transform="translate(21.330520629882812,20 )" id="entity-Category-1a07ff93-e37c-5c4b-81d2-6cefab6d4eed"><rect height="110" width="133.73333740234375" y="0" x="0" class="er entityBox"/><text style="dominant-baseline: middle; text-anchor: middle; font-size: 12px;" transform="translate(66.86666870117188,12)" y="0" x="0" id="text-entity-Category-1a07ff93-e37c-5c4b-81d2-6cefab6d4eed" class="er entityLabel">Category</text><rect height="23" width="54.113128662109375" y="24" x="0" class="er attributeBoxOdd"/><text style="dominant-baseline: middle; font-size: 10.2px;" transform="translate(5,35.5)" y="0" x="0" id="text-entity-Category-1a07ff93-e37c-5c4b-81d2-6cefab6d4eed-attr-1-type" class="er entityLabel">String</text><rect height="23" width="56.620208740234375" y="24" x="54.113128662109375" class="er attributeBoxOdd"/><text style="dominant-baseline: middle; font-size: 10.2px;" transform="translate(59.113128662109375,35.5)" y="0" x="0" id="text-entity-Category-1a07ff93-e37c-5c4b-81d2-6cefab6d4eed-attr-1-name" class="er entityLabel">z_id</text><rect height="23" width="23" y="24" x="110.73333740234375" class="er attributeBoxOdd"/><text style="dominant-baseline: middle; font-size: 10.2px;" transform="translate(115.73333740234375,35.5)" y="0" x="0" id="text-entity-Category-1a07ff93-e37c-5c4b-81d2-6cefab6d4eed-attr-1-comment" class="er entityLabel">🗝️</text><rect height="21" width="54.113128662109375" y="47" x="0" class="er attributeBoxEven"/><text style="dominant-baseline: middle; font-size: 10.2px;" transform="translate(5,57.5)" y="0" x="0" id="text-entity-Category-1a07ff93-e37c-5c4b-81d2-6cefab6d4eed-attr-2-type" class="er entityLabel">String</text><rect height="21" width="56.620208740234375" y="47" x="54.113128662109375" class="er attributeBoxEven"/><text style="dominant-baseline: middle; font-size: 10.2px;" transform="translate(59.113128662109375,57.5)" y="0" x="0" id="text-entity-Category-1a07ff93-e37c-5c4b-81d2-6cefab6d4eed-attr-2-name" class="er entityLabel">name</text><rect height="21" width="23" y="47" x="110.73333740234375" class="er attributeBoxEven"/><text style="dominant-baseline: middle; font-size: 10.2px;" transform="translate(115.73333740234375,57.5)" y="0" x="0" id="text-entity-Category-1a07ff93-e37c-5c4b-81d2-6cefab6d4eed-attr-2-comment" class="er entityLabel"/><rect height="21" width="54.113128662109375" y="68" x="0" class="er attributeBoxOdd"/><text style="dominant-baseline: middle; font-size: 10.2px;" transform="translate(5,78.5)" y="0" x="0" id="text-entity-Category-1a07ff93-e37c-5c4b-81d2-6cefab6d4eed-attr-3-type" class="er entityLabel">DateTime</text><rect height="21" width="56.620208740234375" y="68" x="54.113128662109375" class="er attributeBoxOdd"/><text style="dominant-baseline: middle; font-size: 10.2px;" transform="translate(59.113128662109375,78.5)" y="0" x="0" id="text-entity-Category-1a07ff93-e37c-5c4b-81d2-6cefab6d4eed-attr-3-name" class="er entityLabel">createdAt</text><rect height="21" width="23" y="68" x="110.73333740234375" class="er attributeBoxOdd"/><text style="dominant-baseline: middle; font-size: 10.2px;" transform="translate(115.73333740234375,78.5)" y="0" x="0" id="text-entity-Category-1a07ff93-e37c-5c4b-81d2-6cefab6d4eed-attr-3-comment" class="er entityLabel"/><rect height="21" width="54.113128662109375" y="89" x="0" class="er attributeBoxEven"/><text style="dominant-baseline: middle; font-size: 10.2px;" transform="translate(5,99.5)" y="0" x="0" id="text-entity-Category-1a07ff93-e37c-5c4b-81d2-6cefab6d4eed-attr-4-type" class="er entityLabel">DateTime</text><rect height="21" width="56.620208740234375" y="89" x="54.113128662109375" class="er attributeBoxEven"/><text style="dominant-baseline: middle; font-size: 10.2px;" transform="translate(59.113128662109375,99.5)" y="0" x="0" id="text-entity-Category-1a07ff93-e37c-5c4b-81d2-6cefab6d4eed-attr-4-name" class="er entityLabel">updatedAt</text><rect height="21" width="23" y="89" x="110.73333740234375" class="er attributeBoxEven"/><text style="dominant-baseline: middle; font-size: 10.2px;" transform="translate(115.73333740234375,99.5)" y="0" x="0" id="text-entity-Category-1a07ff93-e37c-5c4b-81d2-6cefab6d4eed-attr-4-comment" class="er entityLabel"/></g><g transform="translate(20,230 )" id="entity-Product-8913f459-c6e1-5923-8b2e-55129fac4b99"><rect height="175" width="136.39437866210938" y="0" x="0" class="er entityBox"/><text style="dominant-baseline: middle; text-anchor: middle; font-size: 12px;" transform="translate(68.19718933105469,12)" y="0" x="0" id="text-entity-Product-8913f459-c6e1-5923-8b2e-55129fac4b99" class="er entityLabel">Product</text><rect height="23" width="54.113128662109375" y="24" x="0" class="er attributeBoxOdd"/><text style="dominant-baseline: middle; font-size: 10.2px;" transform="translate(5,35.5)" y="0" x="0" id="text-entity-Product-8913f459-c6e1-5923-8b2e-55129fac4b99-attr-1-type" class="er entityLabel">String</text><rect height="23" width="59.28125" y="24" x="54.113128662109375" class="er attributeBoxOdd"/><text style="dominant-baseline: middle; font-size: 10.2px;" transform="translate(59.113128662109375,35.5)" y="0" x="0" id="text-entity-Product-8913f459-c6e1-5923-8b2e-55129fac4b99-attr-1-name" class="er entityLabel">z_id</text><rect height="23" width="23" y="24" x="113.39437866210938" class="er attributeBoxOdd"/><text style="dominant-baseline: middle; font-size: 10.2px;" transform="translate(118.39437866210938,35.5)" y="0" x="0" id="text-entity-Product-8913f459-c6e1-5923-8b2e-55129fac4b99-attr-1-comment" class="er entityLabel">🗝️</text><rect height="21" width="54.113128662109375" y="47" x="0" class="er attributeBoxEven"/><text style="dominant-baseline: middle; font-size: 10.2px;" transform="translate(5,57.5)" y="0" x="0" id="text-entity-Product-8913f459-c6e1-5923-8b2e-55129fac4b99-attr-2-type" class="er entityLabel">String</text><rect height="21" width="59.28125" y="47" x="54.113128662109375" class="er attributeBoxEven"/><text style="dominant-baseline: middle; font-size: 10.2px;" transform="translate(59.113128662109375,57.5)" y="0" x="0" id="text-entity-Product-8913f459-c6e1-5923-8b2e-55129fac4b99-attr-2-name" class="er entityLabel">name</text><rect height="21" width="23" y="47" x="113.39437866210938" class="er attributeBoxEven"/><text style="dominant-baseline: middle; font-size: 10.2px;" transform="translate(118.39437866210938,57.5)" y="0" x="0" id="text-entity-Product-8913f459-c6e1-5923-8b2e-55129fac4b99-attr-2-comment" class="er entityLabel"/><rect height="21" width="54.113128662109375" y="68" x="0" class="er attributeBoxOdd"/><text style="dominant-baseline: middle; font-size: 10.2px;" transform="translate(5,78.5)" y="0" x="0" id="text-entity-Product-8913f459-c6e1-5923-8b2e-55129fac4b99-attr-3-type" class="er entityLabel">String</text><rect height="21" width="59.28125" y="68" x="54.113128662109375" class="er attributeBoxOdd"/><text style="dominant-baseline: middle; font-size: 10.2px;" transform="translate(59.113128662109375,78.5)" y="0" x="0" id="text-entity-Product-8913f459-c6e1-5923-8b2e-55129fac4b99-attr-3-name" class="er entityLabel">price</text><rect height="21" width="23" y="68" x="113.39437866210938" class="er attributeBoxOdd"/><text style="dominant-baseline: middle; font-size: 10.2px;" transform="translate(118.39437866210938,78.5)" y="0" x="0" id="text-entity-Product-8913f459-c6e1-5923-8b2e-55129fac4b99-attr-3-comment" class="er entityLabel"/><rect height="23" width="54.113128662109375" y="89" x="0" class="er attributeBoxEven"/><text style="dominant-baseline: middle; font-size: 10.2px;" transform="translate(5,100.5)" y="0" x="0" id="text-entity-Product-8913f459-c6e1-5923-8b2e-55129fac4b99-attr-4-type" class="er entityLabel">String</text><rect height="23" width="59.28125" y="89" x="54.113128662109375" class="er attributeBoxEven"/><text style="dominant-baseline: middle; font-size: 10.2px;" transform="translate(59.113128662109375,100.5)" y="0" x="0" id="text-entity-Product-8913f459-c6e1-5923-8b2e-55129fac4b99-attr-4-name" class="er entityLabel">image</text><rect height="23" width="23" y="89" x="113.39437866210938" class="er attributeBoxEven"/><text style="dominant-baseline: middle; font-size: 10.2px;" transform="translate(118.39437866210938,100.5)" y="0" x="0" id="text-entity-Product-8913f459-c6e1-5923-8b2e-55129fac4b99-attr-4-comment" class="er entityLabel">❓</text><rect height="21" width="54.113128662109375" y="112" x="0" class="er attributeBoxOdd"/><text style="dominant-baseline: middle; font-size: 10.2px;" transform="translate(5,122.5)" y="0" x="0" id="text-entity-Product-8913f459-c6e1-5923-8b2e-55129fac4b99-attr-5-type" class="er entityLabel">String</text><rect height="21" width="59.28125" y="112" x="54.113128662109375" class="er attributeBoxOdd"/><text style="dominant-baseline: middle; font-size: 10.2px;" transform="translate(59.113128662109375,122.5)" y="0" x="0" id="text-entity-Product-8913f459-c6e1-5923-8b2e-55129fac4b99-attr-5-name" class="er entityLabel">description</text><rect height="21" width="23" y="112" x="113.39437866210938" class="er attributeBoxOdd"/><text style="dominant-baseline: middle; font-size: 10.2px;" transform="translate(118.39437866210938,122.5)" y="0" x="0" id="text-entity-Product-8913f459-c6e1-5923-8b2e-55129fac4b99-attr-5-comment" class="er entityLabel"/><rect height="21" width="54.113128662109375" y="133" x="0" class="er attributeBoxEven"/><text style="dominant-baseline: middle; font-size: 10.2px;" transform="translate(5,143.5)" y="0" x="0" id="text-entity-Product-8913f459-c6e1-5923-8b2e-55129fac4b99-attr-6-type" class="er entityLabel">DateTime</text><rect height="21" width="59.28125" y="133" x="54.113128662109375" class="er attributeBoxEven"/><text style="dominant-baseline: middle; font-size: 10.2px;" transform="translate(59.113128662109375,143.5)" y="0" x="0" id="text-entity-Product-8913f459-c6e1-5923-8b2e-55129fac4b99-attr-6-name" class="er entityLabel">createdAt</text><rect height="21" width="23" y="133" x="113.39437866210938" class="er attributeBoxEven"/><text style="dominant-baseline: middle; font-size: 10.2px;" transform="translate(118.39437866210938,143.5)" y="0" x="0" id="text-entity-Product-8913f459-c6e1-5923-8b2e-55129fac4b99-attr-6-comment" class="er entityLabel"/><rect height="21" width="54.113128662109375" y="154" x="0" class="er attributeBoxOdd"/><text style="dominant-baseline: middle; font-size: 10.2px;" transform="translate(5,164.5)" y="0" x="0" id="text-entity-Product-8913f459-c6e1-5923-8b2e-55129fac4b99-attr-7-type" class="er entityLabel">DateTime</text><rect height="21" width="59.28125" y="154" x="54.113128662109375" class="er attributeBoxOdd"/><text style="dominant-baseline: middle; font-size: 10.2px;" transform="translate(59.113128662109375,164.5)" y="0" x="0" id="text-entity-Product-8913f459-c6e1-5923-8b2e-55129fac4b99-attr-7-name" class="er entityLabel">updatedAt</text><rect height="21" width="23" y="154" x="113.39437866210938" class="er attributeBoxOdd"/><text style="dominant-baseline: middle; font-size: 10.2px;" transform="translate(118.39437866210938,164.5)" y="0" x="0" id="text-entity-Product-8913f459-c6e1-5923-8b2e-55129fac4b99-attr-7-comment" class="er entityLabel"/></g><g transform="translate(255.06385803222656,20 )" id="entity-Menu-1d328a09-3d8a-500d-95b0-f020ecbee1a0"><rect height="110" width="144.55770874023438" y="0" x="0" class="er entityBox"/><text style="dominant-baseline: middle; text-anchor: middle; font-size: 12px;" transform="translate(72.27885437011719,12)" y="0" x="0" id="text-entity-Menu-1d328a09-3d8a-500d-95b0-f020ecbee1a0" class="er entityLabel">Menu</text><rect height="23" width="64.9375" y="24" x="0" class="er attributeBoxOdd"/><text style="dominant-baseline: middle; font-size: 10.2px;" transform="translate(5,35.5)" y="0" x="0" id="text-entity-Menu-1d328a09-3d8a-500d-95b0-f020ecbee1a0-attr-1-type" class="er entityLabel">String</text><rect height="23" width="56.620208740234375" y="24" x="64.9375" class="er attributeBoxOdd"/><text style="dominant-baseline: middle; font-size: 10.2px;" transform="translate(69.9375,35.5)" y="0" x="0" id="text-entity-Menu-1d328a09-3d8a-500d-95b0-f020ecbee1a0-attr-1-name" class="er entityLabel">z_id</text><rect height="23" width="23" y="24" x="121.55770874023438" class="er attributeBoxOdd"/><text style="dominant-baseline: middle; font-size: 10.2px;" transform="translate(126.55770874023438,35.5)" y="0" x="0" id="text-entity-Menu-1d328a09-3d8a-500d-95b0-f020ecbee1a0-attr-1-comment" class="er entityLabel">🗝️</text><rect height="21" width="64.9375" y="47" x="0" class="er attributeBoxEven"/><text style="dominant-baseline: middle; font-size: 10.2px;" transform="translate(5,57.5)" y="0" x="0" id="text-entity-Menu-1d328a09-3d8a-500d-95b0-f020ecbee1a0-attr-2-type" class="er entityLabel">PeriodMenu</text><rect height="21" width="56.620208740234375" y="47" x="64.9375" class="er attributeBoxEven"/><text style="dominant-baseline: middle; font-size: 10.2px;" transform="translate(69.9375,57.5)" y="0" x="0" id="text-entity-Menu-1d328a09-3d8a-500d-95b0-f020ecbee1a0-attr-2-name" class="er entityLabel">period</text><rect height="21" width="23" y="47" x="121.55770874023438" class="er attributeBoxEven"/><text style="dominant-baseline: middle; font-size: 10.2px;" transform="translate(126.55770874023438,57.5)" y="0" x="0" id="text-entity-Menu-1d328a09-3d8a-500d-95b0-f020ecbee1a0-attr-2-comment" class="er entityLabel"/><rect height="21" width="64.9375" y="68" x="0" class="er attributeBoxOdd"/><text style="dominant-baseline: middle; font-size: 10.2px;" transform="translate(5,78.5)" y="0" x="0" id="text-entity-Menu-1d328a09-3d8a-500d-95b0-f020ecbee1a0-attr-3-type" class="er entityLabel">DateTime</text><rect height="21" width="56.620208740234375" y="68" x="64.9375" class="er attributeBoxOdd"/><text style="dominant-baseline: middle; font-size: 10.2px;" transform="translate(69.9375,78.5)" y="0" x="0" id="text-entity-Menu-1d328a09-3d8a-500d-95b0-f020ecbee1a0-attr-3-name" class="er entityLabel">createdAt</text><rect height="21" width="23" y="68" x="121.55770874023438" class="er attributeBoxOdd"/><text style="dominant-baseline: middle; font-size: 10.2px;" transform="translate(126.55770874023438,78.5)" y="0" x="0" id="text-entity-Menu-1d328a09-3d8a-500d-95b0-f020ecbee1a0-attr-3-comment" class="er entityLabel"/><rect height="21" width="64.9375" y="89" x="0" class="er attributeBoxEven"/><text style="dominant-baseline: middle; font-size: 10.2px;" transform="translate(5,99.5)" y="0" x="0" id="text-entity-Menu-1d328a09-3d8a-500d-95b0-f020ecbee1a0-attr-4-type" class="er entityLabel">DateTime</text><rect height="21" width="56.620208740234375" y="89" x="64.9375" class="er attributeBoxEven"/><text style="dominant-baseline: middle; font-size: 10.2px;" transform="translate(69.9375,99.5)" y="0" x="0" id="text-entity-Menu-1d328a09-3d8a-500d-95b0-f020ecbee1a0-attr-4-name" class="er entityLabel">updatedAt</text><rect height="21" width="23" y="89" x="121.55770874023438" class="er attributeBoxEven"/><text style="dominant-baseline: middle; font-size: 10.2px;" transform="translate(126.55770874023438,99.5)" y="0" x="0" id="text-entity-Menu-1d328a09-3d8a-500d-95b0-f020ecbee1a0-attr-4-comment" class="er entityLabel"/></g><rect height="14" width="46.03125" y="172.25869750976562" x="22.22647476196289" class="er relationshipLabelBox"/><text style="text-anchor: middle; dominant-baseline: middle; font-size: 12px;" y="179.25869750976562" x="45.24209976196289" id="rel1" class="er relationshipLabel">products</text><rect height="14" width="46.03125" y="171.6353302001953" x="124.88780212402344" class="er relationshipLabelBox"/><text style="text-anchor: middle; dominant-baseline: middle; font-size: 12px;" y="178.6353302001953" x="147.90342712402344" id="rel2" class="er relationshipLabel">category</text><rect height="14" width="66.71875" y="200.25" x="293.98333740234375" class="er relationshipLabelBox"/><text style="text-anchor: middle; dominant-baseline: middle; font-size: 12px;" y="207.25" x="327.34271240234375" id="rel3" class="er relationshipLabel">enum:period</text></svg>